HIERARCHY
ROOT Hips
{
	OFFSET 0.00000 0.00000 0.00000
	CHANNELS 6 Xposition Yposition Zposition Zrotation Yrotation Xrotation 
	JOINT RightUpLegDummy
	{
		OFFSET 0 0 0
		CHANNELS 3 Zrotation Yrotation Xrotation
		JOINT RightUpLeg
		{
			OFFSET -3.52197 -3.41223 0.04002
			CHANNELS 3 Zrotation Yrotation Xrotation
			JOINT RightLeg
			{
				OFFSET -1.06336 -17.58347 1.60435
				CHANNELS 3 Zrotation Yrotation Xrotation
				JOINT RightFoot
				{
					OFFSET -0.27018 -17.05419 -1.63900
					CHANNELS 3 Zrotation Yrotation Xrotation
					JOINT RightToes
					{
						OFFSET 0.00298 -1.73825 3.34613
						CHANNELS 3 Zrotation Yrotation Xrotation
						End Site
						{
							OFFSET 0.00480 -0.05416 3.85043
						}
					}
				}
			}
		}
	}
	JOINT SpineDummy
	{
		OFFSET 0 0 0
		CHANNELS 3 Zrotation Yrotation Xrotation
		JOINT Spine
		{
			OFFSET 0.00000 4.14613 0.00000
			CHANNELS 3 Zrotation Yrotation Xrotation
			JOINT Spine1
			{
				OFFSET 0.00000 10.93369 0.05002
				CHANNELS 3 Zrotation Yrotation Xrotation
				JOINT HEadDummy
				{
					OFFSET 0 0 0
					CHANNELS 3 Zrotation Yrotation Xrotation
					JOINT Head
					{
						OFFSET 0.00000 5.52901 0.00438
						CHANNELS 3 Zrotation Yrotation Xrotation
						End Site
						{
							OFFSET -0.11417 7.29012 0.98962
						}
					}
				}
				JOINT LeftShoulder1Dummy
				{
					OFFSET 0 0 0
					CHANNELS 3 Zrotation Yrotation Xrotation
					JOINT LeftShoulder1
					{
						OFFSET 3.53937 -0.14262 -0.08662
						CHANNELS 3 Zrotation Yrotation Xrotation
						JOINT LeftArm
						{
							OFFSET 4.04833 -0.00133 0.12681
							CHANNELS 3 Zrotation Yrotation Xrotation
							JOINT LeftForeArm
							{
								OFFSET 9.67557 0.03289 -0.56117
								CHANNELS 3 Zrotation Yrotation Xrotation
								JOINT LeftHand
								{
									OFFSET 10.17679 0.06873 0.40307
									CHANNELS 3 Zrotation Yrotation Xrotation
									End Site
									{
										OFFSET 6.59293 -0.21483 0.59213
									}
								}
							}
						}
					}
				}
				JOINT RightShoulderDummy
				{
					OFFSET 0 0 0
					CHANNELS 3 Zrotation Yrotation Xrotation
					JOINT RightShoulder
					{
						OFFSET -3.53937 -0.14262 -0.08660
						CHANNELS 3 Zrotation Yrotation Xrotation
						JOINT RightArm
						{
							OFFSET -4.04833 -0.00132 0.12683
							CHANNELS 3 Zrotation Yrotation Xrotation
							JOINT RightForeArm
							{
								OFFSET -9.67570 0.03289 -0.56114
								CHANNELS 3 Zrotation Yrotation Xrotation
								JOINT RightHand
								{
									OFFSET -10.17679 0.06867 0.40304
									CHANNELS 3 Zrotation Yrotation Xrotation
									End Site
									{
										OFFSET -6.54841 -0.21495 0.59212
									}
								}
							}
						}
					}
				}
			}
		}
	}
	JOINT LeftUpLegDummy
	{
		OFFSET 0 0 0
		CHANNELS 3 Zrotation Yrotation Xrotation
		JOINT LeftUpLeg
		{
			OFFSET 3.52197 -3.41223 0.04002
			CHANNELS 3 Zrotation Yrotation Xrotation
			JOINT LeftLeg
			{
				OFFSET 1.08359 -17.35354 1.60336
				CHANNELS 3 Zrotation Yrotation Xrotation
				JOINT LeftFoot
				{
					OFFSET 0.24986 -17.28405 -1.63802
					CHANNELS 3 Zrotation Yrotation Xrotation
					JOINT LeftToes
					{
						OFFSET -0.01575 -1.73822 3.34610
						CHANNELS 3 Zrotation Yrotation Xrotation
						End Site
						{
							OFFSET 0.03150 -0.01868 3.85031
						}
					}
				}
			}
		}
	}
}
MOTION
Frames: 14
Frame Time: 0.033333
7.8462 41.0621 2.8560 176.8570 -83.6402 -177.5170 0.0000 0.0000 0.0000 -4.1580 -5.0389 0.3231 -2.3214 0.3458 3.2536 -1.7400 0.1673 -2.9600 -0.0000 -0.0000 0.0000 0.0000 0.0000 0.0000 4.5097 0.8163 -5.0090 -4.9491 1.8768 9.3378 0.0000 0.0000 0.0000 3.6331 -5.5860 -0.1792 0.0000 0.0000 0.0000 1.7939 4.3407 0.0195 4.5622 -12.2289 -34.4231 -8.0234 5.4326 29.9826 5.3963 -0.3220 -0.2276 0.0000 0.0000 0.0000 -0.4814 -0.6889 0.2708 -3.8020 15.7445 -28.3113 5.1558 -5.5476 21.9269 -3.4182 -0.0997 -0.1282 0.0000 0.0000 0.0000 6.1554 8.4733 1.5411 0.5827 4.9814 -1.2525 -0.7156 0.0812 1.0416 0.0000 -0.0000 0.0000
7.8646 41.0621 2.8578 176.8470 -83.6361 -177.5170 0.0000 0.0000 0.0000 -4.1602 -5.0309 0.2838 -2.3205 0.3307 3.2933 -1.7400 0.1673 -2.9611 -0.0000 -0.0000 0.0000 0.0000 0.0000 0.0000 4.5131 0.8178 -4.9199 -4.9671 1.8750 9.2244 0.0000 0.0000 0.0000 3.5660 -5.6055 -0.0917 0.0000 0.0000 0.0000 1.7979 4.3345 0.0195 4.5682 -12.2192 -34.3869 -8.0431 5.4312 30.0629 5.2586 -0.4369 -0.2299 0.0000 0.0000 0.0000 -0.4786 -0.6808 0.2708 -3.7769 15.7382 -28.2780 5.1729 -5.5481 21.8618 -3.3690 -0.1056 -0.1287 0.0000 0.0000 0.0000 6.1460 8.4601 1.5023 0.5996 5.0002 -1.2158 -0.7095 0.0808 1.0664 0.0000 -0.0000 0.0000
7.8986 41.0621 2.8640 176.7530 -83.5841 -177.4410 0.0000 0.0000 0.0000 -4.1682 -5.0257 0.1970 -2.3236 0.3808 3.3730 -1.7497 0.1679 -2.9546 -0.0000 -0.0000 0.0000 0.0000 0.0000 0.0000 4.5854 0.8350 -4.7621 -5.0789 1.9134 9.0361 0.0000 0.0000 0.0000 3.4698 -5.6146 0.0277 0.0000 0.0000 0.0000 1.8044 4.3161 0.0195 4.5747 -12.2247 -34.3425 -8.0670 5.4287 30.2267 5.1538 -0.5755 -0.2316 0.0000 0.0000 0.0000 -0.4623 -0.6684 0.2708 -3.7152 15.7259 -28.2287 5.1924 -5.5489 21.7518 -3.3509 -0.1996 -0.1282 0.0000 0.0000 0.0000 6.1186 8.4385 1.4689 0.6163 5.0633 -1.1964 -0.6961 0.0800 1.0963 0.0000 -0.0000 0.0000
7.9357 41.0621 2.8739 176.7880 -83.4820 -177.5180 0.0000 0.0000 0.0000 -4.1667 -5.0112 0.1358 -2.3319 0.4920 3.4158 -1.7809 0.1698 -2.9009 -0.0000 -0.0000 0.0000 0.0000 0.0000 0.0000 4.7329 0.8813 -4.5990 -5.2370 1.9920 8.9087 0.0000 0.0000 0.0000 3.3897 -5.6126 0.0607 0.0000 0.0000 0.0000 1.7707 4.2763 0.0195 4.6141 -12.2614 -34.3395 -8.0715 5.4249 30.4828 5.1724 -0.6376 -0.2314 0.0000 0.0000 0.0000 -0.4857 -0.6595 0.2708 -3.6422 15.7263 -28.2093 5.1868 -5.5487 21.7773 -3.3474 -0.3322 -0.1255 0.0000 0.0000 0.0000 6.1118 8.4449 1.4803 0.6155 5.1360 -1.1989 -0.6970 0.0800 1.0948 0.0000 -0.0000 0.0000
7.9712 41.0621 2.8842 176.9930 -83.3722 -177.7680 0.0000 0.0000 0.0000 -4.1414 -4.9681 0.1178 -2.3491 0.5617 3.3830 -1.7686 0.1687 -2.8084 -0.0000 -0.0000 0.0000 0.0000 0.0000 0.0000 4.8711 0.9403 -4.4743 -5.3378 2.0719 8.8615 0.0000 0.0000 0.0000 3.2866 -5.6469 0.0522 0.0000 0.0000 0.0000 1.7140 4.2177 0.0195 4.6436 -12.2952 -34.3816 -8.0496 5.4224 30.6683 5.2032 -0.6463 -0.2309 0.0000 0.0000 0.0000 -0.5605 -0.6347 0.2708 -3.5731 15.7060 -28.2143 5.1620 -5.5478 21.8963 -3.2883 -0.3486 -0.1238 0.0000 0.0000 0.0000 6.1346 8.4800 1.4939 0.6009 5.1837 -1.1867 -0.7175 0.0814 1.0808 0.0000 -0.0000 0.0000
8.0041 41.0621 2.8941 177.0920 -83.2788 -177.8910 0.0000 0.0000 0.0000 -4.1214 -4.9169 0.0908 -2.3819 0.5936 3.3378 -1.7095 0.1647 -2.7377 -0.0000 -0.0000 0.0000 0.0000 0.0000 0.0000 4.9627 0.9894 -4.3817 -5.4069 2.1354 8.8048 0.0000 0.0000 0.0000 3.1447 -5.7124 0.1321 0.0000 0.0000 0.0000 1.6789 4.1599 0.0195 4.6271 -12.2626 -34.3638 -8.0538 5.4238 30.5687 5.2273 -0.6189 -0.2314 0.0000 0.0000 0.0000 -0.5940 -0.5962 0.2709 -3.5348 15.6554 -28.2280 5.1409 -5.5478 21.9131 -3.2342 -0.2710 -0.1222 0.0000 0.0000 0.0000 6.1443 8.5049 1.4784 0.5840 5.2281 -1.1646 -0.7356 0.0825 1.0894 0.0000 -0.0000 0.0000
8.0358 41.0621 2.9065 176.9860 -83.1888 -177.8080 0.0000 0.0000 0.0000 -4.1345 -4.9018 0.0296 -2.4008 0.6952 3.3647 -1.7031 0.1641 -2.7000 -0.0000 -0.0000 0.0000 0.0000 0.0000 0.0000 5.0740 1.0183 -4.2594 -5.5501 2.1963 8.6877 0.0000 0.0000 0.0000 3.0380 -5.7363 0.2923 0.0000 0.0000 0.0000 1.6745 4.1451 0.0195 4.6167 -12.1827 -34.1954 -8.1396 5.4263 30.3383 5.3194 -0.5594 -0.2337 0.0000 0.0000 0.0000 -0.5292 -0.5916 0.2709 -3.5636 15.6506 -28.2522 5.1328 -5.5482 21.8785 -3.2589 -0.2758 -0.1205 0.0000 0.0000 0.0000 6.1191 8.5000 1.4709 0.5742 5.3058 -1.1598 -0.7204 0.0815 1.1179 0.0000 -0.0000 0.0000
8.0688 41.0620 2.9213 176.8810 -83.1093 -177.7540 0.0000 0.0000 0.0000 -4.1647 -4.9278 -0.0293 -2.3891 0.8367 3.4439 -1.7651 0.1680 -2.6522 -0.0000 -0.0000 0.0000 0.0000 0.0000 0.0000 5.1996 1.0301 -4.0968 -5.7001 2.2441 8.5782 0.0000 0.0000 0.0000 3.0141 -5.6916 0.3830 0.0000 0.0000 0.0000 1.6849 4.1917 0.0195 4.6377 -12.1514 -33.9939 -8.2474 5.4257 30.3105 5.4149 -0.5531 -0.2370 0.0000 0.0000 0.0000 -0.4779 -0.6366 0.2708 -3.6308 15.7304 -28.2716 5.1357 -5.5473 21.9778 -3.2790 -0.3536 -0.1201 0.0000 0.0000 0.0000 6.0915 8.4908 1.4919 0.5684 5.3812 -1.1606 -0.6691 0.0782 1.1414 0.0000 -0.0000 0.0000
8.1027 41.0610 2.9312 176.8450 -83.0799 -177.7730 0.0000 0.0000 0.0000 -4.1831 -4.9505 -0.0616 -2.3748 0.8700 3.4941 -1.7826 0.1690 -2.6097 -0.0000 -0.0000 0.0000 0.0000 0.0000 0.0000 5.1963 1.0314 -3.9710 -5.6618 2.2408 8.5347 0.0000 0.0000 0.0000 3.0000 -5.6392 0.3560 0.0000 0.0000 0.0000 1.6791 4.2208 0.0205 4.6480 -12.1603 -33.9586 -8.2625 5.4239 30.4250 5.4059 -0.6685 -0.2412 0.0000 0.0000 0.0000 -0.5679 -0.6649 0.2708 -3.6477 15.7952 -28.2581 5.1525 -5.5464 22.0665 -3.2312 -0.3054 -0.1215 0.0000 0.0000 0.0000 6.0900 8.5078 1.4877 0.5484 5.3795 -1.1277 -0.6237 0.0753 1.1505 0.0000 -0.0000 0.0000
8.1344 41.0569 2.9311 176.7380 -83.0952 -177.6910 0.0000 0.0000 0.0000 -4.1898 -4.9451 -0.1031 -2.3794 0.8297 3.5307 -1.7413 0.1664 -2.6323 -0.0000 -0.0000 0.0000 0.0000 0.0000 0.0000 5.0448 1.0281 -3.9020 -5.4865 2.1996 8.4793 0.0000 0.0000 0.0000 2.9432 -5.6265 0.3521 0.0000 0.0000 0.0000 1.6278 4.1342 0.0271 4.6909 -12.1007 -34.0576 -8.2047 5.4238 30.4722 5.3837 -0.7660 -0.2441 0.0000 0.0000 0.0000 -0.7123 -0.6231 0.2708 -3.6076 15.7453 -28.2067 5.1864 -5.5475 21.9144 -3.2756 -0.1387 -0.1268 0.0000 0.0000 0.0000 6.1032 8.5532 1.4210 0.5055 5.3151 -1.0491 -0.6155 0.0748 1.1455 0.0000 -0.0000 0.0000
8.1635 41.0518 2.9289 176.5400 -83.0932 -177.4890 0.0000 0.0000 0.0000 -4.2179 -4.9571 -0.2062 -2.3608 0.9148 3.6421 -1.7318 0.1659 -2.6866 -0.0000 -0.0000 0.0000 0.0000 0.0000 0.0000 4.9399 1.0290 -3.8209 -5.4575 2.1891 8.3251 0.0000 0.0000 0.0000 2.9281 -5.6389 0.4881 0.0000 0.0000 0.0000 1.5833 3.9966 0.0385 4.8553 -12.0288 -34.0966 -8.1979 5.4211 30.6583 5.4240 -0.6465 -0.2411 0.0000 0.0000 0.0000 -0.7284 -0.5584 0.2709 -3.6187 15.6354 -28.1209 5.2358 -5.5486 21.7500 -3.5169 -0.1007 -0.1368 0.0000 0.0000 0.0000 6.1028 8.6008 1.3169 0.4614 5.2918 -0.9439 -0.6037 0.0740 1.1316 0.0000 -0.0000 0.0000
8.1921 41.0487 2.9383 176.1440 -83.0553 -177.0290 0.0000 0.0000 0.0000 -4.3283 -5.0615 -0.3912 -2.2705 1.1522 3.7684 -1.6729 0.1621 -2.6689 -0.0000 -0.0000 0.0000 0.0000 0.0000 0.0000 4.9194 1.0397 -3.7986 -5.5653 2.2187 8.1824 0.0000 0.0000 0.0000 2.9884 -5.6696 0.6911 0.0000 0.0000 0.0000 1.6231 3.9743 0.0402 5.0161 -12.1107 -34.1100 -8.2216 5.4169 30.9318 5.3454 -0.4190 -0.2285 0.0000 0.0000 0.0000 -0.6462 -0.5420 0.2709 -3.7147 15.5858 -28.0370 5.2838 -5.5478 21.8052 -3.7017 -0.2363 -0.1406 0.0000 0.0000 0.0000 6.0364 8.5970 1.1533 0.4370 5.3711 -0.8394 -0.5351 0.0696 1.1315 0.0000 -0.0000 0.0000
8.2197 41.0480 2.9689 175.0880 -83.0067 -175.7560 0.0000 0.0000 0.0000 -4.5870 -5.2880 -0.6518 -2.1295 1.4660 3.6778 -1.3782 0.1416 -2.5464 -0.0000 -0.0000 0.0000 0.0000 0.0000 0.0000 4.7370 1.0525 -4.0533 -5.4558 2.2108 8.2270 0.0000 0.0000 0.0000 2.9495 -5.7022 0.8086 0.0000 0.0000 0.0000 1.5702 4.0343 0.0354 4.9349 -12.1211 -34.3530 -8.0848 5.4293 30.1658 5.2091 -0.4565 -0.2237 0.0000 0.0000 0.0000 -0.6456 -0.5641 0.2706 -3.7577 15.6397 -28.1409 5.2538 -5.5527 21.6301 -3.5348 -0.3110 -0.1325 0.0000 0.0000 0.0000 5.8178 8.4823 0.8341 0.4217 5.5738 -0.7645 -0.4339 0.0623 1.1573 0.0000 -0.0000 0.0000
8.2485 41.0495 3.0320 173.3700 -82.8543 -173.6500 0.0000 0.0000 0.0000 -5.0011 -5.6064 -0.9825 -1.9725 2.0826 3.2607 -0.8850 0.1036 -2.3112 -0.0000 -0.0000 0.0000 0.0000 0.0000 0.0000 4.4167 1.0574 -4.5222 -5.1881 2.1626 8.3436 0.0000 0.0000 0.0000 2.7088 -5.6013 0.7693 0.0000 0.0000 0.0000 0.9924 3.9410 0.0460 4.6850 -11.4271 -34.8903 -7.6845 5.5770 27.5736 5.7390 -0.9778 -0.2703 0.0000 0.0000 0.0000 -0.6700 -0.5656 0.2720 -3.6045 15.7661 -28.6140 5.0296 -5.5936 20.9994 -3.1486 -0.2582 -0.1194 0.0000 0.0000 0.0000 5.4214 8.2571 0.3477 0.4110 6.0124 -0.7139 -0.3300 0.0516 1.1717 0.0000 -0.0000 0.0000
